<?xml version="1.0" standalone="no"?>
<!DOCTYPE svg PUBLIC "-//W3C//DTD SVG 20010904//EN"
 "http://www.w3.org/TR/2001/REC-SVG-20010904/DTD/svg10.dtd">
<svg version="1.0" xmlns="http://www.w3.org/2000/svg"
 width="150.000000pt" height="150.000000pt" viewBox="0 0 150.000000 150.000000"
 preserveAspectRatio="xMidYMid meet">

<g transform="translate(0.000000,150.000000) scale(0.100000,-0.100000)"
fill="#000000" stroke="none">
<path d="M665 1484 c-11 -2 -44 -9 -73 -15 -254 -51 -481 -274 -548 -539 -22
-87 -22 -253 0 -345 79 -327 371 -555 711 -555 562 0 908 596 633 1090 -63
114 -181 226 -300 285 -51 25 -118 52 -148 61 -55 15 -238 27 -275 18z m259
-61 c300 -74 516 -353 516 -662 0 -116 -21 -206 -71 -310 -35 -71 -58 -101
-133 -176 -74 -74 -107 -99 -176 -132 -461 -226 -990 104 -990 617 0 150 40
277 125 396 165 230 453 336 729 267z"/>
<path d="M740 1336 c0 -17 5 -26 16 -26 10 0 14 7 12 22 -5 32 -28 35 -28 4z
m17 -8 c-3 -8 -6 -5 -6 6 -1 11 2 17 5 13 3 -3 4 -12 1 -19z"/>
<path d="M797 1353 c-10 -9 -9 -53 1 -53 4 0 9 14 10 30 2 31 0 35 -11 23z"/>
<path d="M624 1336 c-8 -21 3 -49 16 -41 5 3 10 15 10 25 0 25 -18 36 -26 16z
m13 -28 c-3 -8 -6 -5 -6 6 -1 11 2 17 5 13 3 -3 4 -12 1 -19z"/>
<path d="M668 1345 c-3 -4 -3 -15 -1 -26 7 -24 28 -20 28 6 0 18 -16 30 -27
20z m19 -27 c-3 -8 -6 -5 -6 6 -1 11 2 17 5 13 3 -3 4 -12 1 -19z"/>
<path d="M866 1334 c-16 -41 4 -62 23 -25 8 14 7 22 -3 30 -10 9 -15 8 -20 -5z"/>
<path d="M577 1306 c3 -16 10 -23 19 -19 10 4 11 9 1 24 -16 26 -25 24 -20 -5z"/>
<path d="M917 1323 c-11 -10 -8 -43 4 -43 5 0 7 5 4 10 -3 6 -2 10 3 10 5 0 9
7 9 15 0 16 -9 19 -20 8z"/>
<path d="M528 1314 c-10 -10 4 -44 18 -44 8 0 14 5 14 11 0 5 -5 7 -12 3 -8
-5 -9 0 -6 14 6 21 -2 29 -14 16z"/>
<path d="M960 1300 c-8 -15 -9 -25 -2 -32 7 -7 14 -3 22 12 8 15 9 25 2 32 -7
7 -14 3 -22 -12z"/>
<path d="M477 1294 c-3 -4 -1 -16 4 -27 9 -16 13 -17 20 -6 7 12 9 12 9 0 0
-8 3 -12 6 -9 7 8 -14 48 -25 48 -4 0 -11 -3 -14 -6z"/>
<path d="M1001 1273 c-10 -26 -10 -27 4 -9 8 11 15 23 15 28 0 15 -7 8 -19
-19z"/>
<path d="M1030 1265 c-10 -12 -10 -19 -1 -28 9 -9 14 -9 21 3 22 34 4 54 -20
25z m11 -18 c-10 -9 -11 -8 -5 6 3 10 9 15 12 12 3 -3 0 -11 -7 -18z"/>
<path d="M442 1245 c11 -25 20 -30 31 -19 5 5 -28 44 -38 44 -2 0 1 -11 7 -25z"/>
<path d="M395 1240 c-3 -5 -1 -19 5 -30 14 -26 20 -25 12 3 -5 20 -4 21 13 7
17 -14 17 -14 4 8 -15 24 -24 27 -34 12z"/>
<path d="M1072 1237 c-6 -7 -7 -18 -3 -26 9 -13 13 -9 24 22 7 20 -6 23 -21 4z"/>
<path d="M1110 1210 c-15 -28 -4 -39 17 -17 13 12 14 20 6 28 -8 8 -14 5 -23
-11z"/>
<path d="M730 1210 l-45 -5 3 -40 c5 -79 -5 -102 -88 -189 -58 -61 -81 -94
-85 -120 -4 -20 -5 -100 -3 -178 5 -183 14 -205 94 -244 113 -54 253 -43 324
25 34 33 39 43 45 105 14 129 11 258 -8 299 -15 35 -15 42 -1 83 8 25 14 69
12 101 -4 70 -29 94 -104 96 -46 2 -49 4 -54 31 -6 35 -28 44 -90 36z m38 -17
c-10 -2 -26 -2 -35 0 -10 3 -2 5 17 5 19 0 27 -2 18 -5z m42 -23 c0 -23 -100
-26 -108 -2 -3 8 12 12 52 12 31 0 56 -4 56 -10z m114 -73 c26 -19 33 -93 11
-117 -25 -28 -38 -25 -71 18 -46 56 -47 61 -30 87 18 28 61 33 90 12z m-204
-6 c0 -6 -4 -13 -10 -16 -5 -3 -10 1 -10 9 0 9 5 16 10 16 6 0 10 -4 10 -9z
m-39 -78 c-5 -10 -30 -38 -56 -63 -26 -25 -52 -56 -60 -70 -33 -64 -25 -332
12 -389 12 -18 12 -22 1 -19 -30 10 -42 62 -46 200 -6 188 -3 197 76 283 66
72 92 92 73 58z m120 -183 c48 -13 86 -56 98 -110 13 -57 6 -87 -28 -123 -56
-61 -117 -72 -191 -34 -57 29 -82 64 -87 124 -5 43 -2 53 23 82 29 35 94 70
129 71 11 0 36 -5 56 -10z"/>
<path d="M701 801 c-1 -7 7 -35 16 -61 16 -46 16 -51 -1 -105 -22 -70 -15 -84
10 -19 l18 47 22 -49 c28 -61 31 -42 5 26 -19 51 -19 52 0 107 10 31 17 58 14
61 -5 6 -35 -60 -36 -80 0 -7 -11 10 -24 37 -13 28 -24 44 -24 36z"/>
<path d="M800 755 c0 -4 7 -19 15 -36 12 -21 13 -34 5 -48 -5 -11 -10 -28 -10
-38 1 -15 3 -14 14 6 13 23 14 23 24 5 15 -26 26 -11 12 16 -11 20 -10 39 6
87 4 13 1 12 -14 -6 l-20 -24 -6 21 c-6 19 -26 32 -26 17z"/>
<path d="M620 748 c0 -4 5 -19 10 -34 8 -20 8 -36 -1 -56 -6 -16 -9 -32 -5
-35 4 -4 10 3 13 16 l6 24 18 -24 c20 -26 26 -10 8 23 -8 14 -7 28 2 49 6 16
9 33 5 36 -4 4 -10 -3 -13 -16 l-6 -24 -18 24 c-10 13 -19 21 -19 17z"/>
<path d="M293 1103 c-24 -33 -50 -82 -36 -68 25 27 64 87 60 91 -3 3 -14 -7
-24 -23z"/>
<path d="M1208 1098 c8 -9 29 -45 48 -80 18 -35 34 -59 34 -55 0 16 -59 124
-77 138 -16 13 -17 12 -5 -3z"/>
<path d="M216 961 c-8 -23 -18 -60 -21 -83 -4 -36 -3 -34 10 15 8 32 20 67 26
78 6 12 9 23 6 25 -2 3 -12 -13 -21 -35z"/>
<path d="M1296 925 c4 -16 10 -46 14 -65 7 -34 8 -34 8 -5 0 17 -6 46 -14 65
-13 32 -14 32 -8 5z"/>
<path d="M183 760 c0 -41 2 -58 4 -37 2 20 2 54 0 75 -2 20 -4 3 -4 -38z"/>
<path d="M1323 760 c0 -36 2 -50 4 -32 2 17 2 47 0 65 -2 17 -4 3 -4 -33z"/>
<path d="M191 662 c-3 -64 66 -206 135 -279 l45 -48 -49 62 c-59 76 -97 152
-116 230 -8 32 -15 48 -15 35z"/>
<path d="M1311 665 c-1 -11 -4 -31 -6 -45 l-6 -25 11 25 c6 13 9 33 7 45 -4
19 -4 19 -6 0z"/>
<path d="M1258 511 c-20 -42 -58 -101 -83 -131 l-47 -55 53 55 c45 48 130 193
118 204 -2 2 -21 -31 -41 -73z"/>
<path d="M495 331 c-3 -6 2 -14 10 -19 14 -7 10 -13 -21 -37 l-37 -28 23 -19
c12 -10 27 -15 33 -11 7 4 5 10 -6 17 -15 10 -13 14 19 41 l37 31 -26 17 c-15
9 -28 13 -32 8z"/>
<path d="M998 334 c-5 -4 -8 -16 -8 -28 0 -20 0 -20 -15 0 -22 29 -18 1 7 -50
12 -25 25 -43 30 -40 4 3 3 14 -2 25 -11 20 3 28 15 9 3 -5 14 -10 23 -10 13
1 11 6 -10 23 -14 12 -28 35 -30 50 -2 16 -6 25 -10 21z"/>
<path d="M571 268 c-16 -44 -14 -78 5 -85 21 -8 40 14 52 60 10 37 -3 55 -14
20 -14 -45 -25 -64 -34 -58 -5 3 -3 21 5 45 8 22 10 42 5 45 -4 3 -13 -9 -19
-27z"/>
<path d="M770 290 c0 -5 5 -10 10 -10 6 0 10 5 10 10 0 6 -4 10 -10 10 -5 0
-10 -4 -10 -10z"/>
<path d="M805 290 c3 -5 8 -10 11 -10 2 0 4 5 4 10 0 6 -5 10 -11 10 -5 0 -7
-4 -4 -10z"/>
<path d="M874 276 c-8 -21 15 -86 33 -93 22 -9 51 23 35 39 -9 9 -12 8 -12 -5
0 -26 -19 -20 -30 9 -15 38 -12 46 11 39 15 -5 20 -3 17 6 -7 20 -47 23 -54 5z"/>
<path d="M669 238 c0 -18 -2 -43 -5 -55 -2 -13 0 -23 5 -23 5 0 11 10 13 23 4
27 22 26 26 -3 7 -42 22 -18 19 33 -2 49 -4 52 -29 55 -25 3 -28 0 -29 -30z
m41 2 c0 -5 -4 -10 -10 -10 -5 0 -10 5 -10 10 0 6 5 10 10 10 6 0 10 -4 10
-10z"/>
<path d="M771 243 c2 -55 14 -78 39 -78 28 0 35 19 25 71 -9 51 -26 41 -18
-11 3 -28 2 -45 -5 -45 -13 0 -22 24 -22 61 0 16 -4 29 -10 29 -5 0 -10 -12
-9 -27z"/>
</g>
</svg>
